<svg width="32" height="38" viewBox="0 0 32 38" fill="none" xmlns="http://www.w3.org/2000/svg">
<g filter="url(#filter0_d)">
<g clip-path="url(#clip0)">
<path d="M25.1013 32C25.229 31.9995 25.3552 31.9747 25.4715 31.9273C25.5877 31.8799 25.6914 31.811 25.7757 31.7251C25.8599 31.6393 25.9229 31.5384 25.9603 31.4291C25.9978 31.3199 26.0089 31.2047 25.9929 31.0914C25.7756 28.6167 24.5232 26.3062 22.4856 24.6211C20.448 22.9359 17.775 22 15 22C12.225 22 9.552 22.9359 7.51439 24.6211C5.47678 26.3062 4.22438 28.6167 4.00708 31.0914C3.99111 31.2047 4.00222 31.3199 4.03967 31.4291C4.07712 31.5384 4.14006 31.6393 4.22434 31.7251C4.30861 31.811 4.4123 31.8799 4.52854 31.9273C4.64479 31.9747 4.77096 31.9995 4.89871 32H25.1013Z" stroke="#0C0443" stroke-width="2" stroke-miterlimit="10" stroke-linecap="round"/>
<path d="M15 20.32C19.5288 20.32 23.2001 16.6487 23.2001 12.12C23.2001 7.59125 19.5288 3.91998 15 3.91998C10.4713 3.91998 6.80005 7.59125 6.80005 12.12C6.80005 16.6487 10.4713 20.32 15 20.32Z" stroke="#0C0443" stroke-width="2" stroke-miterlimit="10" stroke-linecap="round"/>
</g>
</g>
<defs>
<filter id="filter0_d" x="-3" y="0" width="38" height="38" filterUnits="userSpaceOnUse" color-interpolation-filters="sRGB">
<feFlood flood-opacity="0" result="BackgroundImageFix"/>
<feColorMatrix in="SourceAlpha" type="matrix" values="0 0 0 0 0 0 0 0 0 0 0 0 0 0 0 0 0 0 127 0"/>
<feOffset dx="1" dy="1"/>
<feGaussianBlur stdDeviation="2"/>
<feColorMatrix type="matrix" values="0 0 0 0 0.385567 0 0 0 0 0.215625 0 0 0 0 0.958333 0 0 0 0.2 0"/>
<feBlend mode="normal" in2="BackgroundImageFix" result="effect1_dropShadow"/>
<feBlend mode="normal" in="SourceGraphic" in2="effect1_dropShadow" result="shape"/>
</filter>
<clipPath id="clip0">
<path d="M0 3H30V33H0V3Z" fill="white"/>
</clipPath>
</defs>
</svg>
