<svg width="32" height="29" viewBox="0 0 32 29" fill="none" xmlns="http://www.w3.org/2000/svg">
<path d="M20.3488 27.1488C20.4659 27.1483 20.5816 27.1248 20.6882 27.0799C20.7948 27.035 20.8899 26.9696 20.9671 26.8882C21.0444 26.8068 21.1021 26.7112 21.1365 26.6076C21.1708 26.5041 21.181 26.3949 21.1663 26.2875C20.9671 23.9417 19.8187 21.7517 17.9503 20.1544C16.0819 18.5571 13.631 17.6699 11.0864 17.6699C8.54188 17.6699 6.09089 18.5571 4.22251 20.1544C2.35413 21.7517 1.20575 23.9417 1.00649 26.2875C0.991851 26.3949 1.00204 26.5041 1.03638 26.6076C1.07072 26.7112 1.12843 26.8068 1.2057 26.8882C1.28298 26.9696 1.37805 27.035 1.48465 27.0799C1.59124 27.1248 1.70693 27.1483 1.82407 27.1488H20.3488Z" fill="#603ADE" stroke="#603ADE" stroke-width="2" stroke-miterlimit="10" stroke-linecap="round"/>
<path d="M10.5249 16.6167C14.5481 16.6167 17.8095 13.3159 17.8095 9.24426C17.8095 5.17257 14.5481 1.87183 10.5249 1.87183C6.50167 1.87183 3.24023 5.17257 3.24023 9.24426C3.24023 13.3159 6.50167 16.6167 10.5249 16.6167Z" fill="#603ADE" stroke="#603ADE" stroke-width="2" stroke-miterlimit="10" stroke-linecap="round"/>
<path d="M20.0518 15.4548H30.1673" stroke="#603ADE" stroke-width="2" stroke-miterlimit="10" stroke-linecap="round"/>
<path d="M25.1095 10.2974V20.6123" stroke="#603ADE" stroke-width="2" stroke-miterlimit="10" stroke-linecap="round"/>
</svg>
