<svg width="38" height="38" viewBox="0 0 38 38" fill="none" xmlns="http://www.w3.org/2000/svg">
<g filter="url(#filter0_d)">
<g clip-path="url(#clip0)">
<path d="M32.0032 12.1806C32.0032 18.9436 22.7939 28.2159 19.3155 31.4801C18.9518 31.8072 18.4841 31.9876 17.9999 31.9876C17.5157 31.9876 17.0481 31.8072 16.6843 31.4801C13.2059 28.1955 3.99658 18.9232 3.99658 12.1806C3.99658 4.02007 13.3155 1.24551 17.7507 7.45768C17.7805 7.49783 17.8189 7.53039 17.863 7.55281C17.9071 7.57523 17.9557 7.58689 18.0049 7.58689C18.0541 7.58689 18.1027 7.57523 18.1468 7.55281C18.1909 7.53039 18.2293 7.49783 18.259 7.45768C23.1527 1.1741 32.0032 3.95887 32.0032 12.1806Z" stroke="#0C0443" stroke-width="2" stroke-miterlimit="10" stroke-linecap="round"/>
</g>
</g>
<defs>
<filter id="filter0_d" x="0" y="0" width="38" height="38" filterUnits="userSpaceOnUse" color-interpolation-filters="sRGB">
<feFlood flood-opacity="0" result="BackgroundImageFix"/>
<feColorMatrix in="SourceAlpha" type="matrix" values="0 0 0 0 0 0 0 0 0 0 0 0 0 0 0 0 0 0 127 0"/>
<feOffset dx="1" dy="1"/>
<feGaussianBlur stdDeviation="2"/>
<feColorMatrix type="matrix" values="0 0 0 0 0.385567 0 0 0 0 0.215625 0 0 0 0 0.958333 0 0 0 0.2 0"/>
<feBlend mode="normal" in2="BackgroundImageFix" result="effect1_dropShadow"/>
<feBlend mode="normal" in="SourceGraphic" in2="effect1_dropShadow" result="shape"/>
</filter>
<clipPath id="clip0">
<path d="M3 3H33V33H3V3Z" fill="white"/>
</clipPath>
</defs>
</svg>
