<svg width="36" height="38" viewBox="0 0 36 38" fill="none" xmlns="http://www.w3.org/2000/svg">
<g filter="url(#filter0_d)">
<path d="M26.7199 18.65V13.13C26.6274 10.7606 25.64 8.51438 23.9569 6.8442C22.2737 5.17402 20.0199 4.2041 17.6499 4.12999C11.9999 3.75999 7.27987 7.79999 7.27987 12.83V18.65C7.27808 19.5243 7.04706 20.3828 6.60987 21.14L4.92987 24C4.78872 24.26 4.72101 24.5536 4.73399 24.8491C4.74698 25.1447 4.84017 25.4312 5.00357 25.6778C5.16698 25.9245 5.39444 26.122 5.66156 26.2492C5.92868 26.3765 6.22539 26.4286 6.51987 26.4H27.5199C27.8111 26.4207 28.1025 26.3628 28.3637 26.2323C28.6249 26.1019 28.8463 25.9037 29.0047 25.6584C29.1631 25.4131 29.2527 25.1298 29.2642 24.8381C29.2756 24.5464 29.2085 24.2569 29.0699 24L27.3899 21.1C26.9594 20.3546 26.7286 19.5107 26.7199 18.65Z" stroke="#0C0443" stroke-width="2" stroke-miterlimit="10" stroke-linecap="round"/>
<path d="M9.5 31.93H24.5" stroke="#0C0443" stroke-width="2" stroke-miterlimit="10" stroke-linecap="round"/>
</g>
<defs>
<filter id="filter0_d" x="-1" y="0" width="38" height="38" filterUnits="userSpaceOnUse" color-interpolation-filters="sRGB">
<feFlood flood-opacity="0" result="BackgroundImageFix"/>
<feColorMatrix in="SourceAlpha" type="matrix" values="0 0 0 0 0 0 0 0 0 0 0 0 0 0 0 0 0 0 127 0"/>
<feOffset dx="1" dy="1"/>
<feGaussianBlur stdDeviation="2"/>
<feColorMatrix type="matrix" values="0 0 0 0 0.385567 0 0 0 0 0.215625 0 0 0 0 0.958333 0 0 0 0.2 0"/>
<feBlend mode="normal" in2="BackgroundImageFix" result="effect1_dropShadow"/>
<feBlend mode="normal" in="SourceGraphic" in2="effect1_dropShadow" result="shape"/>
</filter>
</defs>
</svg>
