<svg width="30" height="30" viewBox="0 0 30 30" fill="none" xmlns="http://www.w3.org/2000/svg">
<g clip-path="url(#clip0)">
<g filter="url(#filter0_d)">
<path d="M24.0001 6.24001C22.8777 6.19047 21.782 5.88219 20.7984 5.33924C19.8149 4.79628 18.9701 4.03335 18.3301 3.11001L18.0301 2.68001C17.5371 1.9367 16.7724 1.41616 15.9001 1.23001C15.3576 1.13492 14.8027 1.13492 14.2601 1.23001C13.8235 1.32031 13.4094 1.49685 13.0419 1.74927C12.6745 2.00169 12.3611 2.32491 12.1201 2.70001L11.8201 3.15001C11.2091 4.06086 10.3993 4.8212 9.4518 5.37376C8.50431 5.92632 7.44379 6.2567 6.35012 6.34001H5.94012C5.44591 6.37358 4.96456 6.51226 4.52826 6.7468C4.09195 6.98134 3.71074 7.30631 3.41012 7.70001C3.19037 8.01198 3.00591 8.34736 2.86012 8.70001C2.68666 9.13585 2.60259 9.60212 2.6129 10.0711C2.62321 10.5401 2.72768 11.0022 2.92012 11.43L3.22012 12.13C3.61816 13.045 3.82357 14.0322 3.82357 15.03C3.82357 16.0278 3.61816 17.015 3.22012 17.93L2.85012 18.78C2.51077 19.5169 2.45036 20.3519 2.68012 21.13C2.82804 21.6075 3.05447 22.057 3.35012 22.46C3.66672 22.8608 4.06908 23.1857 4.52765 23.4106C4.98623 23.6356 5.48936 23.755 6.00012 23.76V23.76C7.1225 23.8095 8.21824 24.1178 9.20179 24.6608C10.1854 25.2037 11.0301 25.9667 11.6701 26.89L11.9701 27.32C12.4632 28.0633 13.2278 28.5838 14.1001 28.77C14.6427 28.8651 15.1976 28.8651 15.7401 28.77C16.1767 28.6797 16.5908 28.5032 16.9583 28.2507C17.3258 27.9983 17.6392 27.6751 17.8801 27.3L18.1801 26.85C18.7943 25.9385 19.6077 25.1785 20.5588 24.6276C21.5099 24.0767 22.5738 23.7492 23.6701 23.67H24.0801C24.572 23.6401 25.0518 23.506 25.488 23.2767C25.9241 23.0475 26.3066 22.7282 26.6101 22.34C26.8299 22.028 27.0143 21.6927 27.1601 21.34C27.3336 20.9042 27.4176 20.4379 27.4073 19.9689C27.397 19.4999 27.2926 19.0378 27.1001 18.61L26.8001 17.91C26.4021 16.995 26.1967 16.0078 26.1967 15.01C26.1967 14.0122 26.4021 13.025 26.8001 12.11L27.1701 11.26C27.5095 10.5231 27.5699 9.68808 27.3401 8.91001C27.1922 8.43254 26.9658 7.98305 26.6701 7.58001C26.3554 7.16921 25.9517 6.83517 25.4892 6.60306C25.0267 6.37095 24.5175 6.24681 24.0001 6.24001V6.24001Z" stroke="#0C0443" stroke-width="2" stroke-miterlimit="10" stroke-linecap="round"/>
</g>
<g filter="url(#filter1_d)">
<path d="M14.9998 18.49C16.9272 18.49 18.4898 16.9275 18.4898 15C18.4898 13.0725 16.9272 11.51 14.9998 11.51C13.0723 11.51 11.5098 13.0725 11.5098 15C11.5098 16.9275 13.0723 18.49 14.9998 18.49Z" stroke="#0C0443" stroke-width="2" stroke-miterlimit="10" stroke-linecap="round"/>
</g>
</g>
<defs>
<filter id="filter0_d" x="-1.45703" y="-2.84131" width="34.9343" height="37.6826" filterUnits="userSpaceOnUse" color-interpolation-filters="sRGB">
<feFlood flood-opacity="0" result="BackgroundImageFix"/>
<feColorMatrix in="SourceAlpha" type="matrix" values="0 0 0 0 0 0 0 0 0 0 0 0 0 0 0 0 0 0 127 0"/>
<feOffset dx="1" dy="1"/>
<feGaussianBlur stdDeviation="2"/>
<feColorMatrix type="matrix" values="0 0 0 0 0.385567 0 0 0 0 0.215625 0 0 0 0 0.958333 0 0 0 0.2 0"/>
<feBlend mode="normal" in2="BackgroundImageFix" result="effect1_dropShadow"/>
<feBlend mode="normal" in="SourceGraphic" in2="effect1_dropShadow" result="shape"/>
</filter>
<filter id="filter1_d" x="7.50977" y="7.51001" width="16.98" height="16.98" filterUnits="userSpaceOnUse" color-interpolation-filters="sRGB">
<feFlood flood-opacity="0" result="BackgroundImageFix"/>
<feColorMatrix in="SourceAlpha" type="matrix" values="0 0 0 0 0 0 0 0 0 0 0 0 0 0 0 0 0 0 127 0"/>
<feOffset dx="1" dy="1"/>
<feGaussianBlur stdDeviation="2"/>
<feColorMatrix type="matrix" values="0 0 0 0 0.385567 0 0 0 0 0.215625 0 0 0 0 0.958333 0 0 0 0.2 0"/>
<feBlend mode="normal" in2="BackgroundImageFix" result="effect1_dropShadow"/>
<feBlend mode="normal" in="SourceGraphic" in2="effect1_dropShadow" result="shape"/>
</filter>
<clipPath id="clip0">
<path d="M0 0H30V30H0V0Z" fill="white"/>
</clipPath>
</defs>
</svg>
