<svg width="36" height="38" viewBox="0 0 36 38" fill="none" xmlns="http://www.w3.org/2000/svg">
<g filter="url(#filter0_d)">
<path d="M8 8.97003V4.03003" stroke="#0C0443" stroke-width="2" stroke-linecap="round" stroke-linejoin="round"/>
<path d="M8 31.86V16.71" stroke="#0C0443" stroke-width="2" stroke-linecap="round" stroke-linejoin="round"/>
<path d="M7.99992 15.8299C9.70096 15.8299 11.0799 14.451 11.0799 12.7499C11.0799 11.0489 9.70096 9.66992 7.99992 9.66992C6.29888 9.66992 4.91992 11.0489 4.91992 12.7499C4.91992 14.451 6.29888 15.8299 7.99992 15.8299Z" stroke="#0C0443" stroke-width="2" stroke-linecap="round" stroke-linejoin="round"/>
<path d="M26 12.67V4.03003" stroke="#0C0443" stroke-width="2" stroke-linecap="round" stroke-linejoin="round"/>
<path d="M26 31.8601V18.8301" stroke="#0C0443" stroke-width="2" stroke-linecap="round" stroke-linejoin="round"/>
<path d="M25.9999 18.8299C27.701 18.8299 29.0799 17.451 29.0799 15.7499C29.0799 14.0489 27.701 12.6699 25.9999 12.6699C24.2989 12.6699 22.9199 14.0489 22.9199 15.7499C22.9199 17.451 24.2989 18.8299 25.9999 18.8299Z" stroke="#0C0443" stroke-width="2" stroke-linecap="round" stroke-linejoin="round"/>
<path d="M17 26.9199V31.8599" stroke="#0C0443" stroke-width="2" stroke-linecap="round" stroke-linejoin="round"/>
<path d="M17 4.03003V19.18" stroke="#0C0443" stroke-width="2" stroke-linecap="round" stroke-linejoin="round"/>
<path d="M16.9999 26.2201C18.701 26.2201 20.0799 24.8411 20.0799 23.1401C20.0799 21.439 18.701 20.0601 16.9999 20.0601C15.2989 20.0601 13.9199 21.439 13.9199 23.1401C13.9199 24.8411 15.2989 26.2201 16.9999 26.2201Z" stroke="#0C0443" stroke-width="2" stroke-linecap="round" stroke-linejoin="round"/>
</g>
<defs>
<filter id="filter0_d" x="-1" y="0" width="38" height="38" filterUnits="userSpaceOnUse" color-interpolation-filters="sRGB">
<feFlood flood-opacity="0" result="BackgroundImageFix"/>
<feColorMatrix in="SourceAlpha" type="matrix" values="0 0 0 0 0 0 0 0 0 0 0 0 0 0 0 0 0 0 127 0"/>
<feOffset dx="1" dy="1"/>
<feGaussianBlur stdDeviation="2"/>
<feColorMatrix type="matrix" values="0 0 0 0 0.385567 0 0 0 0 0.215625 0 0 0 0 0.958333 0 0 0 0.2 0"/>
<feBlend mode="normal" in2="BackgroundImageFix" result="effect1_dropShadow"/>
<feBlend mode="normal" in="SourceGraphic" in2="effect1_dropShadow" result="shape"/>
</filter>
</defs>
</svg>
