<svg width="125" height="104" viewBox="0 0 125 104" fill="none" xmlns="http://www.w3.org/2000/svg">
<path d="M0 39.2622C1.87828 38.111 3.63539 36.2327 5.57426 35.8691C8.72494 35.3844 10.6638 38.1716 10.9062 42.1099C11.9968 63.1952 21.8123 78.8879 40.8981 87.9158C74.4649 103.79 113.182 79.4938 114.03 42.3523C114.151 37.0204 118.332 34.112 122.391 36.5356C124.452 37.7474 124.936 39.6863 124.997 41.9281C125.3 70.2842 103.912 96.5196 75.8585 102.276C39.3228 109.728 5.87721 86.1587 0.484719 49.1383C0.424129 48.6536 0.12118 48.2295 0 47.7448C0 44.9576 0 42.1099 0 39.2622Z" fill="url(#paint0_linear)"/>
<path d="M103.003 40.5952C103.003 63.1952 85.0681 81.0692 62.4075 81.0692C39.9287 81.0692 21.8729 62.9528 21.9335 40.3528C21.9335 17.9952 40.171 0 62.771 0C85.0681 0 103.003 18.1164 103.003 40.5952ZM92.0965 40.6558C92.0965 24.2359 78.8879 10.9668 62.5893 10.9062C46.3512 10.9062 32.8397 24.2359 32.8397 40.474C32.7791 56.7727 46.1694 70.163 62.4681 70.163C78.8274 70.163 92.0965 57.015 92.0965 40.6558Z" fill="url(#paint1_linear)"/>
<defs>
<linearGradient id="paint0_linear" x1="-23.1807" y1="103.651" x2="96.3366" y2="-18.6221" gradientUnits="userSpaceOnUse">
<stop stop-color="white"/>
<stop offset="1" stop-color="#F4F1FF"/>
</linearGradient>
<linearGradient id="paint1_linear" x1="6.89937" y1="81.0692" x2="128.042" y2="13.6691" gradientUnits="userSpaceOnUse">
<stop stop-color="white"/>
<stop offset="1" stop-color="#F4F1FF"/>
</linearGradient>
</defs>
</svg>
